<svg width="100" height="100" viewBox="0 0 100 100" fill="none" xmlns="http://www.w3.org/2000/svg">
<path fill-rule="evenodd" clip-rule="evenodd" d="M12.5 25C12.5 18.0965 18.0965 12.5 25 12.5H75C81.9037 12.5 87.5 18.0965 87.5 25V70.8292V70.8375V75C87.5 81.9037 81.9037 87.5 75 87.5H25C18.0965 87.5 12.5 81.9037 12.5 75V58.3333V25ZM79.1667 25V60.7742L65.4462 47.0537C63.8192 45.4267 61.1808 45.4267 59.5537 47.0537L54.1667 52.4408L38.363 36.637C36.7358 35.0099 34.0976 35.0099 32.4704 36.637L20.8333 48.2742V25C20.8333 22.6988 22.6988 20.8333 25 20.8333H75C77.3012 20.8333 79.1667 22.6988 79.1667 25ZM20.8333 75V60.0592L35.4167 45.4758L51.2204 61.2796C52.8475 62.9067 55.4858 62.9067 57.1129 61.2796L62.5 55.8925L79.1667 72.5592V75C79.1667 77.3012 77.3012 79.1667 75 79.1667H25C22.6988 79.1667 20.8333 77.3012 20.8333 75ZM60.4167 41.6667C63.8683 41.6667 66.6667 38.8685 66.6667 35.4167C66.6667 31.9649 63.8683 29.1667 60.4167 29.1667C56.965 29.1667 54.1667 31.9649 54.1667 35.4167C54.1667 38.8685 56.965 41.6667 60.4167 41.6667Z" fill="white" fill-opacity="0.8"/>
</svg>
